<svg width="144" height="37" viewBox="0 0 144 37" fill="none" xmlns="http://www.w3.org/2000/svg">
<path d="M24.5195 15.4427C24.4454 15.9532 24.1088 16.6467 23.7227 17.2496C23.2355 18.0103 22.4623 18.5432 21.5775 18.7282L17.6798 19.5432C17.0534 19.6742 16.4853 20.0021 16.0588 20.4789L13.5032 23.3355C13.0228 23.8724 12.6871 23.7444 12.6871 23.0243C12.6813 23.051 11.4188 26.307 14.7647 28.237C16.0503 28.9785 17.901 28.7121 19.1866 27.9706L25.9984 24.0414C28.546 22.572 30.3446 20.0862 30.9425 17.2087C30.9661 17.0949 30.9844 16.9807 31.0041 16.8665L24.5195 15.4427Z" fill="url(#paint0_linear_35_299)"/>
<path d="M22.7529 11.518C24.0386 12.2595 24.5638 13.3635 24.5638 14.8466C24.5638 15.0479 24.548 15.2469 24.5195 15.4427L27.2643 16.6218L31.0041 16.8665C31.483 14.095 30.5445 11.2423 28.8621 8.97469C27.596 7.26825 25.9668 5.78738 24.0082 4.65762C22.4172 3.7399 20.7638 3.13525 19.1026 2.80347L17.2362 5.22047L16.6466 7.99584L22.7529 11.518Z" fill="url(#paint1_linear_35_299)"/>
<path d="M0.783597 13.5518C0.782899 13.554 0.784832 13.5546 0.78556 13.5524C0.929583 13.1205 1.11018 12.6385 1.33564 12.1237C2.51334 9.4343 4.78286 7.64062 7.57492 6.72608C10.367 5.81156 13.4155 6.13212 15.9601 7.59988L16.6465 7.99578L19.1025 2.80341C11.291 1.24324 3.30728 5.83253 0.793528 13.5217C0.792327 13.5254 0.787957 13.5382 0.783597 13.5518Z" fill="url(#paint2_linear_35_299)"/>
<path d="M18.9198 27.9705C17.6342 28.7121 16.0502 28.7121 14.7646 27.9705C14.5901 27.8699 14.4256 27.7567 14.27 27.6341L12.009 29.1886L10.0602 32.3377C12.2232 34.1378 15.032 34.7165 17.8388 34.3946C19.9511 34.1524 22.0494 33.4833 24.008 32.3536C25.5991 31.4358 26.9499 30.3076 28.0681 29.0363L26.9062 26.2129L25.0261 24.4484L18.9198 27.9705Z" fill="url(#paint3_linear_35_299)"/>
<path d="M14.27 27.6341C13.2795 26.8539 12.687 25.6572 12.687 24.3754V24.2476V13.5724C12.687 12.9687 12.8649 12.8661 13.3882 13.168C12.5822 12.703 10.7202 11.107 8.42105 12.4331C7.13545 13.1747 6.07678 14.8116 6.07678 16.2946V24.1529C6.07678 27.0917 7.59894 30.1573 9.79436 32.1133C9.8812 32.1906 9.9711 32.2636 10.0602 32.3377L14.27 27.6341Z" fill="url(#paint4_linear_35_299)"/>
<path d="M27.9104 7.81242C27.9089 7.81072 27.9073 7.81209 27.9089 7.8138C28.2113 8.15441 28.5388 8.55162 28.8723 9.00411C30.6148 11.3678 31.2658 14.3614 30.6626 17.2344C30.0593 20.1074 28.2571 22.5847 25.7125 24.0524L25.0261 24.4484L28.0681 29.0363C33.3264 23.0577 33.34 13.8556 27.9315 7.83607C27.9289 7.83319 27.92 7.82299 27.9104 7.81242Z" fill="url(#paint5_linear_35_299)"/>
<path d="M6.34355 16.2946C6.34354 14.8115 7.13551 13.4411 8.42113 12.6995C8.59564 12.5989 8.77601 12.5131 8.96002 12.4398L8.74304 9.70627L7.21861 6.57886C4.57671 7.55029 2.4397 9.5579 1.31528 12.1473C0.469097 14.096 9.792e-06 16.246 0 18.5055C0 20.3409 0.302549 22.0738 0.845532 23.6769L3.87391 24.0833L6.34355 23.3389V16.2946Z" fill="url(#paint6_linear_35_299)"/>
<path d="M8.96003 12.4398C10.1316 11.9729 11.4652 12.0586 12.5763 12.6995L12.6871 12.7634L21.5825 17.8943C22.2065 18.2543 22.1498 18.6084 21.4445 18.7559L21.9577 18.6486C22.6329 18.5074 23.2498 18.1623 23.7215 17.6595C24.5327 16.7949 24.8304 15.7518 24.8304 14.8465C24.8304 13.3634 24.0385 11.993 22.7529 11.2514L15.941 7.32233C13.3935 5.85292 10.3394 5.53959 7.5461 6.46107C7.4356 6.49752 7.32744 6.53885 7.21863 6.57886L8.96003 12.4398Z" fill="url(#paint7_linear_35_299)"/>
<path d="M19.3222 34.1523C19.3245 34.1518 19.3241 34.1498 19.3218 34.1503C18.8753 34.2417 18.3673 34.3264 17.8083 34.3888C14.8881 34.7145 11.9676 33.7809 9.77876 31.8225C7.58999 29.8641 6.34359 27.0662 6.3436 24.1307L6.34359 23.3389L0.845581 23.6769C3.39893 31.2156 11.369 35.8285 19.2912 34.1588C19.295 34.158 19.3083 34.1553 19.3222 34.1523Z" fill="url(#paint8_linear_35_299)"/>
<path d="M45.7216 27.5V10.0455H56.9034V12.696H48.8835V17.4347H56.1364V20.0852H48.8835V27.5H45.7216ZM62.733 10.0455V27.5H59.6477V10.0455H62.733ZM71.6158 27.7557C70.3374 27.7557 69.2294 27.4744 68.2919 26.9119C67.3544 26.3494 66.6271 25.5625 66.1101 24.5511C65.5987 23.5398 65.343 22.358 65.343 21.0057C65.343 19.6534 65.5987 18.4687 66.1101 17.4517C66.6271 16.4347 67.3544 15.6449 68.2919 15.0824C69.2294 14.5199 70.3374 14.2386 71.6158 14.2386C72.8942 14.2386 74.0021 14.5199 74.9396 15.0824C75.8771 15.6449 76.6016 16.4347 77.1129 17.4517C77.63 18.4687 77.8885 19.6534 77.8885 21.0057C77.8885 22.358 77.63 23.5398 77.1129 24.5511C76.6016 25.5625 75.8771 26.3494 74.9396 26.9119C74.0021 27.4744 72.8942 27.7557 71.6158 27.7557ZM71.6328 25.2841C72.326 25.2841 72.9055 25.0937 73.3714 24.7131C73.8374 24.3267 74.1839 23.8097 74.4112 23.1619C74.6442 22.5142 74.7607 21.7926 74.7607 20.9972C74.7607 20.196 74.6442 19.4716 74.4112 18.8239C74.1839 18.1705 73.8374 17.6506 73.3714 17.2642C72.9055 16.8778 72.326 16.6847 71.6328 16.6847C70.9226 16.6847 70.3317 16.8778 69.8601 17.2642C69.3942 17.6506 69.0447 18.1705 68.8118 18.8239C68.5845 19.4716 68.4709 20.196 68.4709 20.9972C68.4709 21.7926 68.5845 22.5142 68.8118 23.1619C69.0447 23.8097 69.3942 24.3267 69.8601 24.7131C70.3317 25.0937 70.9226 25.2841 71.6328 25.2841ZM82.8338 27.5L79.1349 14.4091H82.2798L84.581 23.6136H84.7003L87.0526 14.4091H90.1634L92.5156 23.5625H92.6435L94.9105 14.4091H98.0639L94.3565 27.5H91.1435L88.6889 18.6534H88.5099L86.0554 27.5H82.8338ZM100.354 27.5V10.0455H103.44V16.5739H103.567C103.727 16.2557 103.951 15.9176 104.241 15.5597C104.531 15.196 104.923 14.8864 105.417 14.6307C105.911 14.3693 106.542 14.2386 107.309 14.2386C108.32 14.2386 109.232 14.4972 110.045 15.0142C110.863 15.5256 111.511 16.2841 111.988 17.2898C112.471 18.2898 112.712 19.517 112.712 20.9716C112.712 22.4091 112.477 23.6307 112.005 24.6364C111.533 25.642 110.891 26.4091 110.079 26.9375C109.266 27.4659 108.346 27.7301 107.317 27.7301C106.567 27.7301 105.945 27.6051 105.451 27.3551C104.957 27.1051 104.559 26.804 104.258 26.4517C103.962 26.0937 103.732 25.7557 103.567 25.4375H103.388V27.5H100.354ZM103.38 20.9545C103.38 21.8011 103.499 22.5426 103.738 23.179C103.982 23.8153 104.332 24.3125 104.786 24.6705C105.246 25.0227 105.803 25.1989 106.457 25.1989C107.138 25.1989 107.71 25.017 108.17 24.6534C108.63 24.2841 108.977 23.7812 109.21 23.1449C109.448 22.5028 109.567 21.7727 109.567 20.9545C109.567 20.142 109.451 19.4205 109.218 18.7898C108.985 18.1591 108.638 17.6648 108.178 17.3068C107.718 16.9489 107.144 16.7699 106.457 16.7699C105.798 16.7699 105.238 16.9432 104.778 17.2898C104.317 17.6364 103.968 18.1222 103.729 18.7472C103.496 19.3722 103.38 20.108 103.38 20.9545ZM115.335 27.5V14.4091H118.42V27.5H115.335ZM116.886 12.5511C116.398 12.5511 115.977 12.3892 115.625 12.0653C115.273 11.7358 115.097 11.3409 115.097 10.8807C115.097 10.4148 115.273 10.0199 115.625 9.69602C115.977 9.36648 116.398 9.2017 116.886 9.2017C117.381 9.2017 117.801 9.36648 118.148 9.69602C118.5 10.0199 118.676 10.4148 118.676 10.8807C118.676 11.3409 118.5 11.7358 118.148 12.0653C117.801 12.3892 117.381 12.5511 116.886 12.5511ZM128.13 14.4091V16.7955H120.604V14.4091H128.13ZM122.462 11.2727H125.548V23.5625C125.548 23.9773 125.61 24.2955 125.735 24.517C125.866 24.733 126.036 24.8807 126.246 24.9602C126.457 25.0398 126.69 25.0795 126.945 25.0795C127.138 25.0795 127.315 25.0653 127.474 25.0369C127.638 25.0085 127.763 24.983 127.849 24.9602L128.369 27.3722C128.204 27.429 127.968 27.4915 127.661 27.5597C127.36 27.6278 126.991 27.6676 126.553 27.679C125.781 27.7017 125.085 27.5852 124.465 27.3295C123.846 27.0682 123.354 26.6648 122.991 26.1193C122.633 25.5739 122.457 24.892 122.462 24.0739V11.2727ZM136.365 27.7557C135.053 27.7557 133.919 27.483 132.964 26.9375C132.016 26.3864 131.286 25.608 130.774 24.6023C130.263 23.5909 130.007 22.4006 130.007 21.0312C130.007 19.6847 130.263 18.5028 130.774 17.4858C131.291 16.4631 132.013 15.6676 132.939 15.0994C133.865 14.5256 134.953 14.2386 136.203 14.2386C137.01 14.2386 137.771 14.3693 138.487 14.6307C139.209 14.8864 139.845 15.2841 140.396 15.8239C140.953 16.3636 141.391 17.0511 141.709 17.8864C142.027 18.7159 142.186 19.7045 142.186 20.8523V21.7983H131.456V19.7188H139.229C139.223 19.1278 139.095 18.6023 138.845 18.142C138.595 17.6761 138.246 17.3097 137.797 17.0426C137.354 16.7756 136.837 16.642 136.246 16.642C135.615 16.642 135.061 16.7955 134.584 17.1023C134.107 17.4034 133.734 17.8011 133.467 18.2955C133.206 18.7841 133.072 19.321 133.067 19.9062V21.7216C133.067 22.483 133.206 23.1364 133.484 23.6818C133.763 24.2216 134.152 24.6364 134.652 24.9261C135.152 25.2102 135.737 25.3523 136.408 25.3523C136.857 25.3523 137.263 25.2898 137.626 25.1648C137.99 25.0341 138.305 24.8438 138.572 24.5938C138.839 24.3438 139.041 24.0341 139.178 23.6648L142.058 23.9886C141.876 24.75 141.53 25.4148 141.018 25.983C140.513 26.5455 139.865 26.983 139.075 27.2955C138.286 27.6023 137.382 27.7557 136.365 27.7557Z" fill="#111928"/>
<defs>
<linearGradient id="paint0_linear_35_299" x1="20.0601" y1="26.27" x2="23.2076" y2="15.3069" gradientUnits="userSpaceOnUse">
<stop stop-color="#1724C9"/>
<stop offset="1" stop-color="#1C64F2"/>
</linearGradient>
<linearGradient id="paint1_linear_35_299" x1="27.3094" y1="12.9004" x2="19.0298" y2="4.64987" gradientUnits="userSpaceOnUse">
<stop stop-color="#1C64F2"/>
<stop offset="1" stop-color="#0092FF"/>
</linearGradient>
<linearGradient id="paint2_linear_35_299" x1="16.1645" y1="7.52115" x2="3.67432" y2="8.3104" gradientUnits="userSpaceOnUse">
<stop stop-color="#0092FF"/>
<stop offset="1" stop-color="#45B2FF"/>
</linearGradient>
<linearGradient id="paint3_linear_35_299" x1="15.3197" y1="31.1627" x2="26.5365" y2="28.136" gradientUnits="userSpaceOnUse">
<stop stop-color="#1C64F2"/>
<stop offset="1" stop-color="#0092FF"/>
</linearGradient>
<linearGradient id="paint4_linear_35_299" x1="7.26869" y1="18.1827" x2="15.2323" y2="26.4347" gradientUnits="userSpaceOnUse">
<stop stop-color="#1724C9"/>
<stop offset="1" stop-color="#1C64F2"/>
</linearGradient>
<linearGradient id="paint5_linear_35_299" x1="25.4504" y1="24.1357" x2="31.0069" y2="12.9346" gradientUnits="userSpaceOnUse">
<stop stop-color="#0092FF"/>
<stop offset="1" stop-color="#45B2FF"/>
</linearGradient>
<linearGradient id="paint6_linear_35_299" x1="5.36387" y1="11.6309" x2="2.39054" y2="22.8065" gradientUnits="userSpaceOnUse">
<stop stop-color="#1C64F2"/>
<stop offset="1" stop-color="#0092FF"/>
</linearGradient>
<linearGradient id="paint7_linear_35_299" x1="20.5431" y1="11.0994" x2="9.67768" y2="13.8046" gradientUnits="userSpaceOnUse">
<stop stop-color="#1724C9"/>
<stop offset="1" stop-color="#1C64F2"/>
</linearGradient>
<linearGradient id="paint8_linear_35_299" x1="6.40679" y1="23.8566" x2="13.3326" y2="34.2745" gradientUnits="userSpaceOnUse">
<stop stop-color="#0092FF"/>
<stop offset="1" stop-color="#45B2FF"/>
</linearGradient>
</defs>
</svg>
